<svg width="60" height="45" viewBox="0 0 60 45" fill="none" xmlns="http://www.w3.org/2000/svg">
<path d="M58.4348 13.5434L31.0435 1.21734C30.3261 0.891257 29.5435 0.891257 28.8913 1.21734L1.5 13.5434C0.652174 14 0 14.8478 0 15.8913C0 16.8695 0.652174 17.7826 1.56522 18.2391L3.91304 19.3478V28.4782C3.91304 29.3913 4.63043 30.1087 5.54348 30.1087C6.45652 30.1087 7.17391 29.3913 7.17391 28.4782V21.0434L11.087 23.1304V34.2173C11.087 34.6739 11.2174 35.0652 11.4783 35.4565C11.7391 35.8478 17.6739 44.7173 29.6739 44.7173C42 44.7173 47.6739 35.7826 47.9348 35.4565C48.1304 35.1304 48.3261 34.6739 48.3261 34.2826V23.4565L58.6956 18.1739C59.6087 17.7173 60.1304 16.8043 60.1304 15.826C60 14.8478 59.3478 14 58.4348 13.5434ZM43.6956 33.5C42.3913 35.0652 37.9565 40.1521 29.6739 40.1521C21.587 40.1521 16.9565 35.1304 15.6522 33.5V25.413L28.8261 32.1304C29.2174 32.326 29.6087 32.3913 30 32.3913C30.3913 32.3913 30.8478 32.326 31.2391 32.1304L43.6956 25.8043V33.5ZM30 26.913L8.6087 16.0869L30 6.43473L51.3913 16.0869L30 26.913ZM7.17391 32.326C7.63043 32.7826 7.95652 33.5 7.95652 34.1521C7.95652 34.8043 7.69565 35.5217 7.17391 35.9782C6.71739 36.4347 6 36.7608 5.34783 36.7608C4.69565 36.7608 3.97826 36.5 3.52174 35.9782C3.06522 35.5217 2.73913 34.8043 2.73913 34.1521C2.73913 33.5 3 32.7826 3.52174 32.326C3.97826 31.8695 4.69565 31.5434 5.34783 31.5434C6 31.5434 6.65217 31.8043 7.17391 32.326Z" fill="#E0E1DD"/>
</svg>
