<svg width="64" height="64" viewBox="0 0 64 64" fill="none" xmlns="http://www.w3.org/2000/svg">
<g clip-path="url(#clip0_8_188)">
<path fill-rule="evenodd" clip-rule="evenodd" d="M62.8482 28.4202C64.277 25.0783 64.2513 21.8066 63.3615 19.2023C62.2784 15.9973 57.8311 11.805 56.404 13.4648C56.2192 13.6958 53.6611 13.3964 53.247 13.9491C52.6481 14.7533 52.9937 15.01 53.2932 15.2838C54.1915 16.088 56.4964 16.9658 57.5094 19.6848C57.9475 20.8364 58.9605 23.5349 57.21 25.1468C55.2045 26.9674 52.9698 27.3815 43.7981 18.8566C34.0446 9.75337 20.8928 13.4665 16.5602 14.8936C12.2053 16.3447 10.2238 17.7735 11.9281 21.1393C14.2553 25.7012 13.4955 24.2963 15.7525 28.0523C19.3459 34.0413 27.2052 25.2871 27.2052 25.2871C21.3531 34.1131 16.3292 31.9691 14.3939 28.9044C12.6827 26.1153 11.3053 22.9154 11.3053 22.9154C-3.51661 28.2833 0.492591 51.897 0.492591 51.897H7.85048C9.73958 43.2095 16.4455 43.5329 17.5971 51.897H23.2199C28.1822 34.9139 38.8204 51.897 38.8204 51.897H45.1516C45.1516 42.8416 44.207 39.4313 48.8391 38.8068C56.7668 37.7236 60.4526 34.0156 62.8499 28.4373L62.8482 28.4202Z" fill="#02303A"/>
<path fill-rule="evenodd" clip-rule="evenodd" d="M63.9775 22.2686C62.6389 22.3829 61.3128 22.6143 60.0145 22.9599C59.9683 23.0061 59.9461 23.0523 59.8999 23.1208C59.3232 23.7659 58.6097 24.411 57.7781 24.7566C57.6751 24.8194 57.5669 24.8732 57.4547 24.9175C57.3862 24.9859 57.3178 25.0783 57.2237 25.1485C55.2182 26.9691 52.7987 27.3832 43.8118 18.8583C34.1336 9.68663 20.9304 13.4888 16.5739 14.9176C12.2173 16.3464 10.2375 17.7752 11.9418 21.1393C14.269 25.7012 13.5092 24.2963 15.7662 28.0523C19.3596 34.0413 27.2189 25.2871 27.2189 25.2871C21.3668 34.1131 16.3429 31.9691 14.4076 28.9044C12.6964 26.1153 11.319 22.9154 11.319 22.9154C-3.51659 28.2833 0.492609 51.897 0.492609 51.897H7.8505C9.7396 43.2095 16.4455 43.5329 17.5971 51.897H23.2199C28.1822 34.9139 38.8204 51.897 38.8204 51.897H45.1516C45.1516 42.8416 44.207 39.4313 48.8391 38.8068C56.7446 37.7236 60.4303 34.0361 62.8259 28.4373C63.7705 26.2949 64.0922 24.1971 63.9775 22.284V22.2686Z" fill="#02303A"/>
<path fill-rule="evenodd" clip-rule="evenodd" d="M37.2013 24.6426L45.1742 27.2925C44.9208 28.5138 42.6395 30.8642 39.6899 29.8734C35.8187 28.583 37.2013 24.6426 37.2013 24.6426V24.6426Z" fill="white"/>
<path d="M41.3042 29.0783C42.4305 28.9587 43.2498 27.9795 43.1342 26.8911C43.0187 25.8028 42.0119 25.0175 40.8856 25.1371C39.7593 25.2567 38.9399 26.2359 39.0555 27.3243C39.1711 28.4126 40.1778 29.1979 41.3042 29.0783Z" fill="#02303A"/>
<path fill-rule="evenodd" clip-rule="evenodd" d="M53.324 15.2872C53.5772 15.5182 53.9006 15.7252 54.2223 15.9323C55.7658 14.666 57.7473 14.6883 59.4071 13.9987C57.9098 12.6161 55.557 11.5569 54.799 12.4553C54.6142 12.6863 53.6936 13.3998 53.2589 13.9525C52.66 14.7567 53.0057 15.0134 53.3051 15.2872H53.324Z" fill="#02303A"/>
</g>
<defs>
<clipPath id="clip0_8_188">
<rect width="64" height="64" fill="white"/>
</clipPath>
</defs>
</svg>
