<svg width="64" height="64" viewBox="0 0 64 64" fill="none" xmlns="http://www.w3.org/2000/svg">
<path d="M11.952 5.06599C11.4363 6.78942 11.167 8.57712 11.152 10.376L14.006 11.758C13.9523 10.0614 14.0191 8.36312 14.206 6.67599C14.216 6.55999 14.228 6.49199 14.228 6.49199C14.228 6.55399 14.21 6.61399 14.206 6.67599C14.0723 8.34457 14.0703 10.0211 14.2 11.69C15.6782 10.4314 17.0895 9.09625 18.428 7.68999C18.1467 6.9413 17.7205 6.25544 17.1738 5.67168C16.6271 5.08792 15.9706 4.61772 15.242 4.28799C15.242 4.28799 12.714 3.26799 11.952 5.06599Z" fill="url(#paint0_linear_8_198)"/>
<path d="M21.848 26.99C21.714 27.136 21.576 27.274 21.436 27.412C21.508 27.346 21.582 27.268 21.65 27.196C21.72 27.1313 21.7861 27.0625 21.848 26.99V26.99Z" fill="#BE202E"/>
<path opacity="0.35" d="M21.848 26.99C21.714 27.136 21.576 27.274 21.436 27.412C21.508 27.346 21.582 27.268 21.65 27.196C21.72 27.1313 21.7861 27.0625 21.848 26.99V26.99Z" fill="#BE202E"/>
<path d="M20.8 24.712C20.824 24.694 20.842 24.67 20.864 24.652C20.954 24.562 21.044 24.472 21.12 24.38C21.02 24.49 20.906 24.596 20.798 24.712H20.8Z" fill="#BE202E"/>
<path opacity="0.35" d="M20.8 24.712C20.824 24.694 20.842 24.67 20.864 24.652C20.954 24.562 21.044 24.472 21.12 24.38C21.02 24.49 20.906 24.596 20.798 24.712H20.8Z" fill="#BE202E"/>
<path d="M14.76 20.184C14.6267 19.2347 14.5067 18.3013 14.4 17.384C14.29 16.43 14.2 15.494 14.138 14.568C14.138 14.512 14.128 14.456 14.138 14.406C14.064 13.502 14.02 12.62 14 11.756L11.15 10.382C11.15 10.554 11.13 10.732 11.124 10.92C11.096 11.602 11.074 12.32 11.068 13.09C11.068 13.95 11.068 14.846 11.084 15.784C11.104 16.648 11.14 17.548 11.186 18.464C11.232 19.248 11.284 20.04 11.348 20.848C11.348 20.882 11.348 20.904 11.348 20.94L15.16 22.87C15.034 21.968 14.894 21.072 14.76 20.184Z" fill="url(#paint1_linear_8_198)"/>
<path d="M20.4 42.724C20.6 43.436 20.824 44.17 21.056 44.914C21.056 44.914 21.056 44.936 21.056 44.944C21.088 45.052 21.114 45.154 21.154 45.258C21.306 45.76 21.452 46.206 21.768 47.226C22.5332 47.1792 23.295 47.3616 23.956 47.75C23.4374 47.114 22.6896 46.7074 21.874 46.618C22.9719 46.0578 23.894 45.2056 24.5387 44.1551C25.1834 43.1046 25.5257 41.8966 25.528 40.664C25.504 40.452 25.476 40.232 25.434 40.012C25.4108 40.4987 25.2561 40.97 24.9864 41.3757C24.7166 41.7814 24.3418 42.1064 23.902 42.316V42.316C24.8263 40.9142 25.2557 39.2438 25.122 37.57C25.092 37.184 25.042 36.77 24.972 36.332C24.861 37.3902 24.4756 38.4011 23.854 39.2648C23.2325 40.1284 22.3962 40.8147 21.428 41.256L20.272 42.32C20.314 42.454 20.35 42.586 20.4 42.724Z" fill="url(#paint2_linear_8_198)"/>
<path d="M18.9059 39.47C18.6639 38.566 18.4219 37.648 18.1759 36.722C17.9439 35.834 17.7219 34.938 17.4999 34.03C17.2779 33.122 17.0639 32.208 16.8519 31.294C16.6399 30.38 16.4319 29.426 16.2359 28.494C16.0399 27.562 15.8559 26.632 15.6719 25.708C15.6059 25.372 15.5459 25.044 15.4859 24.708C15.3799 24.136 15.2859 23.56 15.1819 22.982C15.1819 22.952 15.1719 22.918 15.1619 22.888L11.3719 20.954C11.3807 21.0143 11.3854 21.0751 11.3859 21.136C11.4619 21.994 11.5359 22.866 11.6379 23.736C11.7399 24.606 11.8499 25.516 11.9819 26.418C12.0939 27.178 12.2139 27.932 12.3399 28.694C12.3659 28.844 12.3959 29.002 12.4219 29.15C12.5959 30.092 12.7839 31.002 12.9859 31.852C13.2119 32.816 13.4559 33.72 13.6999 34.564C13.8639 35.116 14.0259 35.648 14.1919 36.152C14.3359 36.576 14.4919 37.002 14.6419 37.422C15.0039 38.408 15.4059 39.364 15.8419 40.298L19.6719 42.238C19.4719 41.534 19.2719 40.818 19.0719 40.092C19.0159 39.882 18.9639 39.68 18.9059 39.47Z" fill="url(#paint3_linear_8_198)"/>
<path d="M15.894 40.416C16.4132 41.5362 17.0016 42.623 17.656 43.67C17.678 43.702 17.7 43.746 17.722 43.778C16.772 43.5172 15.7808 43.4405 14.802 43.552C16.5802 44.0464 18.201 44.9908 19.508 46.294C18.8741 46.8498 18.1085 47.234 17.284 47.41C18.1025 47.5448 18.9419 47.4705 19.724 47.194C18.9723 48.0036 18.4588 49.0051 18.24 50.088C18.7792 49.0219 19.6165 48.1353 20.65 47.536C21.8 51.348 23.184 55.48 24.718 59.816C24.8354 59.6647 24.9133 59.4866 24.9448 59.2977C24.9762 59.1089 24.9601 58.9151 24.898 58.734C24.616 57.956 22.79 52.798 20.708 45.798C20.648 45.598 20.596 45.398 20.53 45.198C20.512 45.14 20.498 45.09 20.48 45.03C20.2667 44.2967 20.0493 43.542 19.828 42.766C19.78 42.586 19.728 42.418 19.68 42.236L15.85 40.296C15.8611 40.3372 15.8758 40.3774 15.894 40.416V40.416Z" fill="url(#paint4_linear_8_198)"/>
<path d="M15.612 22.952C15.634 23.08 15.658 23.194 15.68 23.324C15.754 23.704 15.82 24.088 15.898 24.474C15.978 24.896 16.066 25.326 16.15 25.768C16.192 25.99 16.234 26.212 16.282 26.44C16.42 27.12 16.57 27.816 16.724 28.534C16.924 29.416 17.124 30.322 17.346 31.266C17.546 32.158 17.782 33.088 18.018 34.034C18.248 34.936 18.48 35.86 18.736 36.816C18.96 37.662 19.202 38.532 19.446 39.416C19.446 39.458 19.474 39.504 19.482 39.546C19.728 40.424 19.986 41.33 20.254 42.252C20.2556 42.2724 20.2617 42.2923 20.272 42.31L21.428 41.246C21.398 41.246 21.376 41.272 21.338 41.288C22.9087 39.5601 23.8941 37.3806 24.154 35.06C24.2771 33.9046 24.265 32.7387 24.118 31.586C23.9957 30.5846 23.81 29.5919 23.562 28.614C23.334 27.698 23.054 26.726 22.712 25.702C22.4764 26.1643 22.1798 26.5928 21.83 26.976L21.63 27.196C21.564 27.27 21.49 27.334 21.416 27.412C22.3356 25.9128 22.634 24.1139 22.248 22.398C21.9898 23.1225 21.6021 23.7941 21.104 24.38C21.028 24.472 20.938 24.562 20.848 24.652C20.824 24.67 20.806 24.694 20.776 24.718C21.0915 24.2091 21.3409 23.662 21.518 23.09C21.5532 22.9784 21.5819 22.8649 21.604 22.75C21.644 22.576 21.672 22.4 21.698 22.224C21.708 22.108 21.726 22 21.736 21.882C21.7591 21.6072 21.7591 21.3309 21.736 21.056C21.736 20.964 21.736 20.882 21.714 20.796C21.692 20.668 21.676 20.548 21.652 20.432C21.56 19.898 21.452 19.432 21.354 19.032C21.302 18.832 21.254 18.648 21.202 18.482C21.178 18.416 21.166 18.352 21.142 18.282C21.08 18.1 21.03 17.932 20.974 17.792C20.9127 17.627 20.8426 17.4655 20.764 17.308C20.7449 17.3877 20.7167 17.4648 20.68 17.538C20.3442 18.2232 19.9058 18.8531 19.38 19.406L20.446 18.432L19.374 19.4C19.3692 19.4027 19.3651 19.4064 19.3619 19.4109C19.3588 19.4154 19.3568 19.4206 19.356 19.426C19.3009 19.4812 19.2488 19.5392 19.2 19.6C19.2 19.586 19.218 19.574 19.22 19.562L15.58 22.892C15.61 22.918 15.614 22.938 15.612 22.952Z" fill="url(#paint5_linear_8_198)"/>
<path d="M14.2 11.69C14.244 12.49 14.314 13.386 14.4 14.378C14.4017 14.4304 14.4077 14.4826 14.418 14.534C14.5 15.4 14.606 16.334 14.742 17.352C14.858 18.23 14.986 19.152 15.142 20.152C15.272 21.018 15.432 21.924 15.596 22.886L19.236 19.552C19.855 18.5665 20.1726 17.4216 20.15 16.258C20.15 15.972 20.128 15.672 20.106 15.364C20.0487 14.4046 19.9433 13.4488 19.79 12.5C19.6547 11.6331 19.4738 10.7739 19.248 9.92601C19.1306 9.48394 18.9911 9.04806 18.83 8.62001C18.7 8.29401 18.564 7.99601 18.43 7.71201C17.0877 9.10828 15.6759 10.436 14.2 11.69V11.69Z" fill="url(#paint6_linear_8_198)"/>
<path d="M21.6539 27.2C21.5879 27.274 21.5139 27.338 21.4399 27.416C21.5073 27.3402 21.5787 27.2681 21.6539 27.2V27.2Z" fill="#BE202E"/>
<path opacity="0.35" d="M21.6539 27.2C21.5879 27.274 21.5139 27.338 21.4399 27.416C21.5073 27.3402 21.5787 27.2681 21.6539 27.2V27.2Z" fill="#BE202E"/>
<path d="M21.6539 27.2C21.5879 27.274 21.5139 27.338 21.4399 27.416C21.5073 27.3402 21.5787 27.2681 21.6539 27.2V27.2Z" fill="url(#paint7_linear_8_198)"/>
<path d="M20.8 24.718C20.824 24.7 20.842 24.676 20.872 24.652C20.848 24.67 20.83 24.694 20.8 24.718Z" fill="#BE202E"/>
<path opacity="0.35" d="M20.8 24.718C20.824 24.7 20.842 24.676 20.872 24.652C20.848 24.67 20.83 24.694 20.8 24.718Z" fill="#BE202E"/>
<path d="M20.8 24.718C20.824 24.7 20.842 24.676 20.872 24.652C20.848 24.67 20.83 24.694 20.8 24.718Z" fill="url(#paint8_linear_8_198)"/>
<path d="M49.254 5.78199C47.4724 6.76189 45.8383 7.98869 44.4 9.42598L45.6 12.806C46.9052 11.3982 48.3088 10.0849 49.8 8.87599C49.902 8.79199 49.964 8.74399 49.964 8.74399C49.912 8.79199 49.852 8.82799 49.8 8.87599C48.363 10.1108 47.0255 11.457 45.8 12.902C47.988 13.0647 50.183 13.1128 52.376 13.046C52.7461 12.2189 52.9491 11.3269 52.9735 10.4211C52.9979 9.5154 52.8431 8.61375 52.518 7.76799C52.518 7.76799 51.294 4.93999 49.254 5.78199Z" fill="url(#paint9_linear_8_198)"/>
<path d="M39.8 31.292C39.576 31.304 39.354 31.304 39.132 31.304C39.242 31.304 39.364 31.304 39.476 31.304C39.5841 31.3064 39.6923 31.3024 39.8 31.292V31.292Z" fill="#BE202E"/>
<path opacity="0.35" d="M39.8 31.292C39.576 31.304 39.354 31.304 39.132 31.304C39.242 31.304 39.364 31.304 39.476 31.304C39.5841 31.3064 39.6923 31.3024 39.8 31.292V31.292Z" fill="#BE202E"/>
<path d="M40.7679 28.628C40.7999 28.628 40.8339 28.628 40.8679 28.628C41.0119 28.628 41.1559 28.628 41.2919 28.612C41.1239 28.612 40.9479 28.612 40.7699 28.624L40.7679 28.628Z" fill="#BE202E"/>
<path opacity="0.35" d="M40.7679 28.628C40.7999 28.628 40.8339 28.628 40.8679 28.628C41.0119 28.628 41.1559 28.628 41.2919 28.612C41.1239 28.612 40.9479 28.612 40.7699 28.624L40.7679 28.628Z" fill="#BE202E"/>
<path d="M39.502 20.182C40.15 19.3127 40.7953 18.4647 41.438 17.638C42.106 16.782 42.782 15.962 43.464 15.164C43.504 15.114 43.546 15.066 43.584 15.026C44.252 14.248 44.916 13.504 45.584 12.792L44.384 9.422C44.242 9.556 44.09 9.69 43.936 9.832C43.37 10.358 42.778 10.926 42.168 11.534C41.48 12.22 40.768 12.948 40.04 13.716C39.37 14.428 38.684 15.18 37.994 15.954C37.408 16.622 36.82 17.3 36.23 18.002L36.162 18.08L37.696 22.662C38.306 21.836 38.904 21 39.502 20.182Z" fill="url(#paint10_linear_8_198)"/>
<path d="M26.126 42.8C25.726 43.54 25.326 44.3 24.916 45.084C24.916 45.094 24.902 45.104 24.9 45.114C24.84 45.228 24.78 45.33 24.73 45.444C24.454 45.968 24.218 46.444 23.662 47.516C24.3155 48.0861 24.7841 48.8382 25.008 49.676C25.0956 48.7526 24.8169 47.8318 24.232 47.112C27.348 47.712 30.178 47.312 31.904 45.222C32.054 45.034 32.204 44.834 32.346 44.622C31.9405 44.9951 31.4414 45.2512 30.9018 45.3632C30.3623 45.4752 29.8025 45.4388 29.282 45.258V45.258C31.1404 44.8619 32.813 43.8559 34.034 42.4C34.316 42.064 34.602 41.696 34.896 41.284C33.9658 42.0479 32.8522 42.5557 31.6655 42.757C30.4788 42.9584 29.2601 42.8463 28.13 42.432L26.354 42.37C26.278 42.522 26.2 42.656 26.126 42.8Z" fill="url(#paint11_linear_8_198)"/>
<path d="M27.516 39C28.04 38.078 28.574 37.148 29.116 36.2C29.636 35.3 30.166 34.4 30.716 33.496C31.266 32.592 31.814 31.684 32.368 30.778C32.922 29.872 33.514 28.94 34.102 28.028C34.69 27.116 35.276 26.228 35.86 25.336C36.074 25.012 36.286 24.7 36.51 24.378C36.878 23.834 37.258 23.29 37.636 22.748C37.652 22.718 37.678 22.688 37.694 22.656L36.18 18.088C36.1389 18.1436 36.0942 18.1964 36.046 18.246C35.426 18.998 34.794 19.758 34.178 20.544C33.562 21.33 32.934 22.144 32.324 22.978C31.81 23.678 31.308 24.378 30.804 25.094C30.706 25.234 30.604 25.386 30.508 25.528C29.908 26.426 29.326 27.306 28.814 28.152C28.23 29.108 27.706 30.03 27.236 30.902C26.93 31.478 26.636 32.034 26.37 32.572C26.148 33.028 25.936 33.494 25.724 33.952C25.232 35.032 24.796 36.122 24.402 37.218L25.944 41.818C26.344 41.088 26.756 40.362 27.166 39.618C27.276 39.42 27.4 39.216 27.516 39Z" fill="url(#paint12_linear_8_198)"/>
<path d="M24.34 37.372C23.8682 38.6865 23.4788 40.0291 23.174 41.392C23.174 41.436 23.148 41.488 23.142 41.532C22.5842 40.5671 21.8469 39.7179 20.97 39.03C22.0087 40.8407 22.5631 42.8886 22.58 44.976C21.6277 44.9195 20.7057 44.62 19.902 44.106C20.4537 44.8654 21.1885 45.4729 22.038 45.872C20.7898 45.9271 19.5809 46.325 18.544 47.022C19.8254 46.5926 21.2039 46.5447 22.512 46.884C20.4 50.864 18.24 55.29 16.03 60C16.244 59.9709 16.4473 59.8892 16.6218 59.7621C16.7964 59.635 16.9366 59.4666 17.03 59.272C17.43 58.42 20.05 52.82 23.936 45.528C24.044 45.328 24.162 45.118 24.272 44.9C24.304 44.838 24.332 44.786 24.364 44.726C24.7747 43.966 25.1994 43.186 25.638 42.386C25.742 42.202 25.838 42.026 25.94 41.842V41.832L24.398 37.232C24.3743 37.2767 24.3549 37.3236 24.34 37.372V37.372Z" fill="url(#paint13_linear_8_198)"/>
<path d="M37.9881 23.088C37.9041 23.208 37.8321 23.32 37.7481 23.44C37.5061 23.804 37.254 24.166 37.01 24.54C36.766 24.914 36.468 25.358 36.184 25.782C36.042 25.994 35.9001 26.206 35.7561 26.428C35.3261 27.086 34.8941 27.766 34.4481 28.464C33.9001 29.326 33.3481 30.22 32.7781 31.156C32.2381 32.042 31.6801 32.968 31.1201 33.918C30.5881 34.826 30.0421 35.756 29.4881 36.718C28.9961 37.578 28.5001 38.468 27.9881 39.38C27.9601 39.42 27.9421 39.472 27.9141 39.514C27.4161 40.416 26.9021 41.35 26.3841 42.314C26.3688 42.332 26.3579 42.3532 26.3521 42.376L28.1281 42.438C28.0981 42.422 28.0641 42.418 28.0221 42.4C30.6591 42.2563 33.1837 41.2841 35.2361 39.622C36.2547 38.791 37.1729 37.8439 37.9721 36.8C38.6687 35.8967 39.3073 34.9502 39.8841 33.966C40.4281 33.048 40.9761 32.042 41.5141 30.946C40.9572 31.1308 40.378 31.2398 39.7921 31.27L39.4561 31.288C39.3441 31.288 39.2341 31.288 39.1121 31.288C41.0431 30.8111 42.712 29.6 43.7641 27.912C42.9806 28.2906 42.1349 28.5237 41.2681 28.6C41.1321 28.614 40.9881 28.614 40.8441 28.616C40.8121 28.616 40.7781 28.616 40.7341 28.616C41.3921 28.4573 42.0272 28.2154 42.6241 27.896C42.7411 27.836 42.8547 27.7692 42.9641 27.696C43.1361 27.588 43.2961 27.468 43.4581 27.348C43.5601 27.264 43.658 27.188 43.76 27.104C43.9958 26.8993 44.2139 26.6752 44.4121 26.434C44.4801 26.356 44.544 26.288 44.6 26.206C44.684 26.086 44.7661 25.976 44.8381 25.864C45.1881 25.362 45.4781 24.904 45.7161 24.496C45.8341 24.296 45.9401 24.108 46.0321 23.932C46.0641 23.86 46.1061 23.798 46.1401 23.732C46.2361 23.532 46.3281 23.36 46.3941 23.204C46.4753 23.0226 46.5467 22.837 46.6081 22.648V22.648C46.5295 22.6968 46.4457 22.7364 46.3581 22.766C45.5436 23.0511 44.6905 23.2103 43.8281 23.238L45.4601 23.3L43.8281 23.238C43.8227 23.2355 43.8169 23.2342 43.8111 23.2342C43.8052 23.2342 43.7994 23.2355 43.7941 23.238C43.7088 23.2335 43.6233 23.2335 43.538 23.238C43.55 23.238 43.5721 23.238 43.5841 23.222L38.0041 23.022C38.0141 23.058 38.0001 23.078 37.9881 23.088Z" fill="url(#paint14_linear_8_198)"/>
<path d="M45.8 12.904C45.2 13.582 44.544 14.36 43.828 15.232C43.7876 15.2756 43.7508 15.3224 43.718 15.372C43.096 16.134 42.442 16.972 41.74 17.898C41.14 18.698 40.5 19.546 39.832 20.478C39.248 21.278 38.658 22.136 38.032 23.04L43.612 23.24C44.8935 22.939 46.0592 22.2703 46.966 21.316C47.188 21.082 47.414 20.828 47.642 20.562C48.3559 19.7423 49.028 18.8872 49.656 18C50.2329 17.1947 50.767 16.3595 51.256 15.498C51.513 15.0494 51.7473 14.5881 51.958 14.116C52.112 13.75 52.24 13.404 52.358 13.066C50.1706 13.1221 47.9819 13.0681 45.8 12.904V12.904Z" fill="url(#paint15_linear_8_198)"/>
<path d="M39.476 31.31C39.364 31.31 39.254 31.31 39.132 31.31C39.2465 31.3037 39.3614 31.3037 39.476 31.31V31.31Z" fill="#BE202E"/>
<path opacity="0.35" d="M39.476 31.31C39.364 31.31 39.254 31.31 39.132 31.31C39.2465 31.3037 39.3614 31.3037 39.476 31.31V31.31Z" fill="#BE202E"/>
<path d="M39.476 31.31C39.364 31.31 39.254 31.31 39.132 31.31C39.2465 31.3037 39.3614 31.3037 39.476 31.31V31.31Z" fill="url(#paint16_linear_8_198)"/>
<defs>
<linearGradient id="paint0_linear_8_198" x1="10.8592" y1="4.58091" x2="17.8265" y2="-4.25793" gradientUnits="userSpaceOnUse">
<stop stop-color="#F69923"/>
<stop offset="0.312" stop-color="#F79A23"/>
<stop offset="0.838" stop-color="#E97826"/>
</linearGradient>
<linearGradient id="paint1_linear_8_198" x1="20.4396" y1="57.8712" x2="10.2896" y2="6.67971" gradientUnits="userSpaceOnUse">
<stop offset="0.323" stop-color="#9E2064"/>
<stop offset="0.63" stop-color="#C92037"/>
<stop offset="0.751" stop-color="#CD2335"/>
<stop offset="1" stop-color="#E97826"/>
</linearGradient>
<linearGradient id="paint2_linear_8_198" x1="24.359" y1="50.6716" x2="18.3106" y2="20.1666" gradientUnits="userSpaceOnUse">
<stop stop-color="#282662"/>
<stop offset="0.095" stop-color="#662E8D"/>
<stop offset="0.788" stop-color="#9F2064"/>
<stop offset="0.949" stop-color="#CD2032"/>
</linearGradient>
<linearGradient id="paint3_linear_8_198" x1="19.3967" y1="55.0898" x2="9.24667" y2="3.8983" gradientUnits="userSpaceOnUse">
<stop offset="0.323" stop-color="#9E2064"/>
<stop offset="0.63" stop-color="#C92037"/>
<stop offset="0.751" stop-color="#CD2335"/>
<stop offset="1" stop-color="#E97826"/>
</linearGradient>
<linearGradient id="paint4_linear_8_198" x1="19.3578" y1="51.2171" x2="14.0237" y2="24.3147" gradientUnits="userSpaceOnUse">
<stop stop-color="#282662"/>
<stop offset="0.095" stop-color="#662E8D"/>
<stop offset="0.788" stop-color="#9F2064"/>
<stop offset="0.949" stop-color="#CD2032"/>
</linearGradient>
<linearGradient id="paint5_linear_8_198" x1="24.6942" y1="54.0394" x2="14.5442" y2="2.84795" gradientUnits="userSpaceOnUse">
<stop offset="0.323" stop-color="#9E2064"/>
<stop offset="0.63" stop-color="#C92037"/>
<stop offset="0.751" stop-color="#CD2335"/>
<stop offset="1" stop-color="#E97826"/>
</linearGradient>
<linearGradient id="paint6_linear_8_198" x1="25.0673" y1="57.2659" x2="14.9172" y2="6.07443" gradientUnits="userSpaceOnUse">
<stop offset="0.323" stop-color="#9E2064"/>
<stop offset="0.63" stop-color="#C92037"/>
<stop offset="0.751" stop-color="#CD2335"/>
<stop offset="1" stop-color="#E97826"/>
</linearGradient>
<linearGradient id="paint7_linear_8_198" x1="26.281" y1="53.7248" x2="16.131" y2="2.53336" gradientUnits="userSpaceOnUse">
<stop offset="0.323" stop-color="#9E2064"/>
<stop offset="0.63" stop-color="#C92037"/>
<stop offset="0.751" stop-color="#CD2335"/>
<stop offset="1" stop-color="#E97826"/>
</linearGradient>
<linearGradient id="paint8_linear_8_198" x1="26.0949" y1="53.7617" x2="15.9449" y2="2.57021" gradientUnits="userSpaceOnUse">
<stop offset="0.323" stop-color="#9E2064"/>
<stop offset="0.63" stop-color="#C92037"/>
<stop offset="0.751" stop-color="#CD2335"/>
<stop offset="1" stop-color="#E97826"/>
</linearGradient>
<linearGradient id="paint9_linear_8_198" x1="41.6747" y1="7.96837" x2="54.3528" y2="6.39277" gradientUnits="userSpaceOnUse">
<stop stop-color="#F69923"/>
<stop offset="0.312" stop-color="#F79A23"/>
<stop offset="0.838" stop-color="#E97826"/>
</linearGradient>
<linearGradient id="paint10_linear_8_198" x1="6.88337" y1="58.6345" x2="39.54" y2="9.20822" gradientUnits="userSpaceOnUse">
<stop offset="0.323" stop-color="#9E2064"/>
<stop offset="0.63" stop-color="#C92037"/>
<stop offset="0.751" stop-color="#CD2335"/>
<stop offset="1" stop-color="#E97826"/>
</linearGradient>
<linearGradient id="paint11_linear_8_198" x1="15.7927" y1="55.9499" x2="35.2529" y2="26.4966" gradientUnits="userSpaceOnUse">
<stop stop-color="#282662"/>
<stop offset="0.095" stop-color="#662E8D"/>
<stop offset="0.788" stop-color="#9F2064"/>
<stop offset="0.949" stop-color="#CD2032"/>
</linearGradient>
<linearGradient id="paint12_linear_8_198" x1="8.26102" y1="55.5569" x2="40.9177" y2="6.13058" gradientUnits="userSpaceOnUse">
<stop offset="0.323" stop-color="#9E2064"/>
<stop offset="0.63" stop-color="#C92037"/>
<stop offset="0.751" stop-color="#CD2335"/>
<stop offset="1" stop-color="#E97826"/>
</linearGradient>
<linearGradient id="paint13_linear_8_198" x1="11.32" y1="52.3994" x2="28.4819" y2="26.4246" gradientUnits="userSpaceOnUse">
<stop stop-color="#282662"/>
<stop offset="0.095" stop-color="#662E8D"/>
<stop offset="0.788" stop-color="#9F2064"/>
<stop offset="0.949" stop-color="#CD2032"/>
</linearGradient>
<linearGradient id="paint14_linear_8_198" x1="13.3759" y1="58.9363" x2="46.0325" y2="9.51001" gradientUnits="userSpaceOnUse">
<stop offset="0.323" stop-color="#9E2064"/>
<stop offset="0.63" stop-color="#C92037"/>
<stop offset="0.751" stop-color="#CD2335"/>
<stop offset="1" stop-color="#E97826"/>
</linearGradient>
<linearGradient id="paint15_linear_8_198" x1="11.102" y1="61.8385" x2="43.7587" y2="12.4123" gradientUnits="userSpaceOnUse">
<stop offset="0.323" stop-color="#9E2064"/>
<stop offset="0.63" stop-color="#C92037"/>
<stop offset="0.751" stop-color="#CD2335"/>
<stop offset="1" stop-color="#E97826"/>
</linearGradient>
<linearGradient id="paint16_linear_8_198" x1="14.9078" y1="59.9486" x2="47.5644" y2="10.5222" gradientUnits="userSpaceOnUse">
<stop offset="0.323" stop-color="#9E2064"/>
<stop offset="0.63" stop-color="#C92037"/>
<stop offset="0.751" stop-color="#CD2335"/>
<stop offset="1" stop-color="#E97826"/>
</linearGradient>
</defs>
</svg>
